<?xml version="1.0"?>
<svg id="Lag_1" data-name="Lag 1" xmlns="http://www.w3.org/2000/svg" width="977.7" height="254.6" viewBox="0 0 977.7 254.6">
  <path d="M171.2,66.5c0-11.2-9-20.2-20.2-20.2s-10.5,2.2-14.1,5.7l-18.7-9.6c-.5-6.5-5.8-11.6-12.4-11.6s-4.6.7-6.5,1.9l-18.7-9.6c.1-1,.2-2,.2-3,0-11.2-9-20.2-20.2-20.2s-20.2,9-20.2,20.2,5.8,16.4,13.8,19.1v16.5c-3.6,2.2-6,6.1-6,10.6s2.4,8.5,6,10.6v57.3c-8,2.7-13.8,10.2-13.8,19.1s2.2,10.6,5.9,14.2l-23.3,46.6c-.9-.1-1.8-.2-2.8-.2-11.2,0-20.2,9-20.2,20.2s9,20.2,20.2,20.2,20.2-9,20.2-20.2-2.2-10.6-5.9-14.2l23.3-46.6c.9.1,1.8.2,2.8.2,10.8,0,19.6-8.5,20.1-19.1l53.5-14.8c3.6,5.4,9.8,8.9,16.7,8.9,11.2,0,20.2-9,20.2-20.2s-5.8-16.4-13.8-19.1v-23.9c8-2.7,13.8-10.2,13.8-19.1ZM144.5,109.5c-7.7,2.6-13.2,9.6-13.7,18l-53.5,14.8c-2.5-3.6-6.1-6.4-10.3-7.8v-57.3c3.6-2.2,6-6.1,6-10.6s-2.4-8.5-6-10.6v-16.5c2.9-1,5.5-2.6,7.7-4.7l18.7,9.6c.5,6.5,5.8,11.6,12.4,11.6s4.6-.7,6.5-1.9l18.7,9.6c-.1,1-.2,2-.2,3,0,8.9,5.8,16.4,13.8,19.1v23.9Z" fill="#6060a8"></path>
  <path d="M316,72.7c-16.1,0-29.4,7.9-36.9,22.5h-1.1v-20.4h-34.1v7.1h11.2c3.9,0,5.6,2.1,5.6,6.7v122.3c0,4.5-1.7,6.9-5.6,6.9h-11.2v6.9h56.7v-6.9h-15c-3.9,0-5.6-2.4-5.6-7.1v-47.9c7.7,13.7,20.4,21,35.6,21,27.7,0,49.4-20.4,49.4-56s-21.9-55.2-48.9-55.2ZM311.9,175.3c-21,0-32.4-17.6-32.4-48.1s11.4-46.4,32.2-46.4,32.6,16.1,32.6,47-11.4,47.4-32.4,47.4Z" fill="#fff"></path>
  <path d="M415.4,167.8V27.2h-36.7v6.9h11.8c3.9,0,5.6,2.4,5.6,6.9v127.1c0,4.5-1.7,6.9-5.6,6.9h-11.8v6.9h54.1v-6.9h-11.8c-3.9,0-5.6-2.4-5.6-7.1Z" fill="#fff"></path>
  <path d="M485.3,72.7c-29,0-51.9,20.4-51.9,55.6s23.4,55.6,53.4,55.6,41.6-12.9,46.6-36.3h-8.2c-4.1,17.2-13.7,26.4-29.4,28.1-1.9.2-4.1.4-6.2.4-22.1,0-35.2-15.7-35.6-44.9-.2-1.5-.2-3-.2-4.5h81.1c0-35.2-21.7-54.1-49.6-54.1ZM454.2,119.7c1.5-26.2,12.5-39.9,31.3-39.9s30,13.5,30.7,39.9h-62Z" fill="#fff"></path>
  <path d="M583.6,167.8v-92.9h-36.9v7.1h12c3.6,0,5.4,2.1,5.4,6.7v79.4c0,4.5-1.7,6.9-5.4,6.9h-12v6.9h54.3v-6.9h-12c-3.6,0-5.4-2.4-5.4-7.1Z" fill="#fff"></path>
  <path d="M572.5,55.8c7.9,0,13.1-4.9,13.1-12.2s-5.2-12.4-13.1-12.4-12.7,4.7-12.7,12.4,5.2,12.2,12.7,12.2Z" fill="#fff"></path>
  <path d="M717.6,162.5c0,1.5,0,3-.2,4.3-.6,4.9-2.8,7.7-5.6,8.6-.6.2-1.3.4-2.1.4-4.5,0-7.1-3-7.1-10.9v-50.7c0-1.5,0-2.8-.2-4.1-.4-26.2-14.6-37.3-42.9-37.3s-43.4,14.2-43.8,25.5v.9c0,5.8,3.7,9.9,8.2,10.7.9.4,1.9.6,3,.6,6,0,11.4-3.2,11.4-10.5s-2.8-7.9-7.1-8.6c-.6-.2-1.5-.4-2.4-.6,3.9-4.5,11.2-9.4,22.5-10.3,1.1-.2,2.4-.2,3.4-.2,18.9,0,27.3,9.7,28.3,22.5v2.8c0,8.8-3,10.5-42.3,23-2.1.9-4.1,1.5-6.2,2.1-16.7,6.2-21.9,15.2-21.9,27.3s10.3,23.6,26.4,25.5c3.2.2,6.4.2,9.7,0,14.8-.6,27-6.9,35-17h1.1c1.5,7.7,5.8,13.1,13.3,15,3.4,1.7,7.3,2.1,11.2,1.9,9-.9,15.5-7.1,15.5-20.4v-6.7h-7.1v6ZM683,147.2c0,3.2-.4,6.2-1.5,9.2-3.6,10.7-14.6,18.2-28.5,18.2s-20.6-6.4-20.6-19.7c0-23.4,28.1-22.1,50.7-34.6v26.8Z" fill="#fff"></path>
  <path d="M836.4,168.2V27.2h-36.1v6.9h11.2c3.9,0,5.6,2.4,5.6,6.9v51.9c-7.7-13.1-20.6-20.2-35.2-20.2-27.7,0-49.6,20.4-49.6,56s21.9,55.2,49.2,55.2,29-7.5,36.7-21.7h1.1v19.5h33.9v-6.9h-11.2c-3.9,0-5.6-2.1-5.6-6.7ZM785.6,175.8c-21.3,0-32.4-16.1-32.4-47s11.2-47.4,32.4-47.4,32.2,16.5,32.2,48.1-11.2,46.4-32.2,46.4Z" fill="#fff"></path>
  <path d="M970.6,162.5c0,1.5,0,3-.2,4.3-.6,4.9-2.8,7.7-5.6,8.6-.6.2-1.3.4-2.2.4-4.5,0-7.1-3-7.1-10.9v-50.7c0-1.5,0-2.8-.2-4.1-.4-26.2-14.6-37.3-42.9-37.3s-43.4,14.2-43.8,25.5v.9c0,5.8,3.7,9.9,8.2,10.7.9.4,1.9.6,3,.6,6,0,11.4-3.2,11.4-10.5s-2.8-7.9-7.1-8.6c-.6-.2-1.5-.4-2.4-.6,3.9-4.5,11.2-9.4,22.5-10.3,1.1-.2,2.4-.2,3.4-.2,18.9,0,27.3,9.7,28.3,22.5v2.8c0,8.8-3,10.5-42.3,23-2.1.9-4.1,1.5-6.2,2.1-16.7,6.2-21.9,15.2-21.9,27.3s10.3,23.6,26.4,25.5c3.2.2,6.4.2,9.7,0,14.8-.6,27-6.9,35-17h1.1c1.5,7.7,5.8,13.1,13.3,15,3.4,1.7,7.3,2.1,11.2,1.9,9-.9,15.5-7.1,15.5-20.4v-6.7h-7.1v6ZM936,147.2c0,3.2-.4,6.2-1.5,9.2-3.7,10.7-14.6,18.2-28.5,18.2s-20.6-6.4-20.6-19.7c0-23.4,28.1-22.1,50.7-34.6v26.8Z" fill="#fff"></path>
</svg>